<svg xmlns="http://www.w3.org/2000/svg" width="120" height="146.081" viewBox="0 0 120 146.081"><defs><style>.a{fill:#fff;}.b{fill:#e40046;}</style></defs><g transform="translate(-41.408 -19.611)"><path class="a" d="M80.109,44.114a38.633,38.633,0,1,1,0,77.267Z" transform="translate(-0.068 -0.043)"/><path class="a" d="M141.325,121.446a20.224,20.224,0,1,1,0-40.448Z" transform="translate(-0.141 -0.108)"/><g transform="translate(41.408 19.611)"><path class="b" d="M80.11,38.47l19.857-9.525V19.611L80.11,29.136Z" transform="translate(-41.476 -19.611)"/><path class="b" d="M41.408,82.748a38.633,38.633,0,0,0,38.633,38.633V44.114A38.633,38.633,0,0,0,41.408,82.748Z" transform="translate(-41.408 -19.654)"/><path class="b" d="M161.584,101.221A20.224,20.224,0,0,0,141.361,81v40.448A20.224,20.224,0,0,0,161.584,101.221Z" transform="translate(-41.584 -19.719)"/><path class="b" d="M141.361,121.517v40.447a20.223,20.223,0,0,0,0-40.447Z" transform="translate(-41.584 -19.791)"/></g><g transform="translate(42.818 126.314)"><path class="a" d="M55.412,142.6H55.2a.435.435,0,0,0-.461-.441,9.1,9.1,0,0,0-1.511.252,13.251,13.251,0,0,1-2.56.252c-4.176,0-7.848-2.959-7.848-7.3a7.338,7.338,0,0,1,7.555-7.24,12.8,12.8,0,0,1,2.833.377,5.282,5.282,0,0,0,1.133.19.457.457,0,0,0,.525-.4h.21l.336,5.582H55.2a12.41,12.41,0,0,0-1.2-2.643c-.819-1.323-2.035-2.834-3.735-2.834-2.9,0-3.044,5.142-3.044,7.073,0,2.288.4,6.926,3.59,6.926,2.434,0,4.092-3.882,4.575-5.792h.21Z" transform="translate(-42.82 -126.506)"/><path class="a" d="M64.56,135.222c-1.406,0-1.447-1.511-2.245-1.511-1.134,0-1.028,2.456-1.028,3.105v2.9a3.852,3.852,0,0,0,.314,2.014,1.7,1.7,0,0,0,1.365.461v.211H55.893v-.211a1.722,1.722,0,0,0,1.386-.461,4.078,4.078,0,0,0,.294-2.014v-3.442c0-1.447,0-2.707-1.784-2.812l-.022-.21a40.464,40.464,0,0,0,5.373-1.616v3.211c.462-1.427,1.407-3.211,3.148-3.211a1.841,1.841,0,0,1,1.889,1.826A1.678,1.678,0,0,1,64.56,135.222Z" transform="translate(-42.843 -126.512)"/><path class="a" d="M73.789,142.671V140.7a5.931,5.931,0,0,1-3.987,1.973,2.574,2.574,0,0,1-2.036-.9,3.749,3.749,0,0,1-.461-2.182v-4.68a5.27,5.27,0,0,0-.126-1.511c-.232-.8-.693-.923-1.469-.965v-.21a45.193,45.193,0,0,0,5.31-.588v7.6a2.8,2.8,0,0,0,.21,1.386,1.232,1.232,0,0,0,1.05.546,2.2,2.2,0,0,0,1.51-.8v-5.456a5.27,5.27,0,0,0-.126-1.511c-.231-.8-.693-.923-1.469-.965v-.21a45.193,45.193,0,0,0,5.31-.588v6.947c0,1.259.021,2.2,1.511,2.392v.211A51.052,51.052,0,0,0,73.789,142.671Z" transform="translate(-42.86 -126.512)"/><path class="a" d="M79.434,142.39v-.211a1.465,1.465,0,0,0,1.26-.461,4.08,4.08,0,0,0,.293-2.014v-3.442c0-1.447-.042-2.707-1.8-2.812l-.021-.21a41.655,41.655,0,0,0,5.519-1.616v8.08a4.1,4.1,0,0,0,.294,2.014,1.462,1.462,0,0,0,1.259.461v.211Zm3.148-11.437a2.225,2.225,0,1,1,2.245-2.225A2.241,2.241,0,0,1,82.582,130.953Z" transform="translate(-42.884 -126.503)"/><path class="a" d="M93.653,142.4v-.211c.986-.1.986-.65.986-1.531v-4.785c0-.9.189-2.665-1.175-2.665a2.532,2.532,0,0,0-1.574.756v6.694c0,.881,0,1.427.986,1.531v.211H86.5v-.211a1.721,1.721,0,0,0,1.385-.461,4.067,4.067,0,0,0,.294-2.014v-3.442c0-1.447,0-2.707-1.784-2.812l-.021-.21a57.2,57.2,0,0,0,5.519-1.616v1.993c1.133-1.154,2.161-1.993,3.84-1.993a2.645,2.645,0,0,1,2.14.86,3.636,3.636,0,0,1,.483,2.2v5.435c0,1.176-.189,1.974,1.259,2.056v.211Z" transform="translate(-42.897 -126.512)"/><path class="a" d="M107.063,142.4v-.211c.986-.1.986-.65.986-1.531v-4.785c0-.9.189-2.665-1.175-2.665a2.532,2.532,0,0,0-1.574.756v6.694c0,.881,0,1.427.986,1.531v.211h-6.38v-.211a1.721,1.721,0,0,0,1.385-.461,4.067,4.067,0,0,0,.294-2.014v-3.442c0-1.447,0-2.707-1.784-2.812l-.021-.21a57.2,57.2,0,0,0,5.519-1.616v1.993c1.133-1.154,2.161-1.993,3.84-1.993a2.645,2.645,0,0,1,2.14.86,3.636,3.636,0,0,1,.483,2.2v5.435c0,1.176-.189,1.974,1.26,2.056v.211Z" transform="translate(-42.92 -126.512)"/><path class="a" d="M113.464,142.39v-.211a1.463,1.463,0,0,0,1.259-.461,4.069,4.069,0,0,0,.294-2.014v-3.442c0-1.447-.042-2.707-1.8-2.812l-.021-.21a41.655,41.655,0,0,0,5.519-1.616v8.08a4.113,4.113,0,0,0,.293,2.014,1.464,1.464,0,0,0,1.26.461v.211Zm3.147-11.437a2.225,2.225,0,1,1,2.246-2.225A2.24,2.24,0,0,1,116.611,130.953Z" transform="translate(-42.944 -126.503)"/><path class="a" d="M128.417,142.663v-1.973a5.931,5.931,0,0,1-3.987,1.973,2.574,2.574,0,0,1-2.036-.9,3.749,3.749,0,0,1-.461-2.182V134.9a5.27,5.27,0,0,0-.126-1.511c-.232-.8-.693-.923-1.469-.965v-.21a45.193,45.193,0,0,0,5.31-.588v7.6a2.8,2.8,0,0,0,.21,1.386,1.232,1.232,0,0,0,1.05.546,2.2,2.2,0,0,0,1.51-.8V134.9a5.27,5.27,0,0,0-.126-1.511c-.231-.8-.693-.923-1.469-.965v-.21a45.193,45.193,0,0,0,5.31-.588v6.947c0,1.259.021,2.2,1.511,2.392v.211A51.051,51.051,0,0,0,128.417,142.663ZM126.654,130.2l-1.028.588-.21-.21.9-1.112a8.044,8.044,0,0,0,.588-.86c.4-.757.881-1.742,1.867-1.742a1.2,1.2,0,0,1,1.176,1.217C129.949,129.463,127.682,129.61,126.654,130.2Z" transform="translate(-42.957 -126.504)"/><path class="a" d="M71.646,162.146v-.21c.986-.1.986-.651.986-1.531V155.62c0-.9.19-2.665-1.175-2.665a2.542,2.542,0,0,0-1.574.756v6.7c0,.88,0,1.426.987,1.531v.21H64.49v-.21a1.73,1.73,0,0,0,1.386-.461,4.083,4.083,0,0,0,.293-2.015v-3.441c0-1.448,0-2.707-1.784-2.813l-.021-.21a57.2,57.2,0,0,0,5.519-1.616v1.994c1.134-1.155,2.162-1.994,3.841-1.994a2.649,2.649,0,0,1,2.14.86,3.644,3.644,0,0,1,.482,2.2v5.435c0,1.175-.189,1.973,1.26,2.056v.21Z" transform="translate(-42.858 -126.547)"/><path class="a" d="M86.567,162.44c-1.3,0-1.868-.84-2.1-2.014a4.284,4.284,0,0,1-3.777,1.992c-1.407,0-3-.671-3-2.287a2.461,2.461,0,0,1,1.469-2.161,24.855,24.855,0,0,1,5.289-2.057v-1.091a9.8,9.8,0,0,0-.147-2.077,1.087,1.087,0,0,0-1.092-.819c-1.574,0-1.636,1.49-1.8,2.665a2.251,2.251,0,0,1-2.2,2.161,1.411,1.411,0,0,1-1.469-1.468c0-2.623,5.646-3.9,7.7-3.9a2.826,2.826,0,0,1,1.91.567,2.719,2.719,0,0,1,.819,2.33V159.1c0,.714-.084,1.763.923,1.763a1.478,1.478,0,0,0,.84-.274l.126.148A5.783,5.783,0,0,1,86.567,162.44Zm-2.119-6.276c-1.574.525-2.477,1.05-2.477,2.876,0,.8.189,1.952,1.217,1.952.9,0,1.26-.777,1.26-1.574Z" transform="translate(-42.881 -126.547)"/><path class="a" d="M100.883,162.146v-.21c.986-.1.986-.651.986-1.531V155.62c0-.9.19-2.665-1.175-2.665a2.542,2.542,0,0,0-1.574.756v6.7c0,.88,0,1.426.987,1.531v.21H93.727v-.21a1.73,1.73,0,0,0,1.386-.461,4.083,4.083,0,0,0,.293-2.015v-3.441c0-1.448,0-2.707-1.784-2.813L93.6,153a57.2,57.2,0,0,0,5.519-1.616v1.994c1.134-1.155,2.162-1.994,3.841-1.994a2.649,2.649,0,0,1,2.14.86,3.644,3.644,0,0,1,.483,2.2v5.435c0,1.175-.19,1.973,1.259,2.056v.21Z" transform="translate(-42.91 -126.547)"/><path class="a" d="M114.609,162.4a7.28,7.28,0,1,1,7.639-7.26A7.424,7.424,0,0,1,114.609,162.4Zm2.371-12.612a2.51,2.51,0,0,0-4.722,0,20.341,20.341,0,0,0,0,10.682,2.51,2.51,0,0,0,4.722,0,20.341,20.341,0,0,0,0-10.682Zm-1.154-3.442a11.263,11.263,0,0,0-2.182.651l-.169-.253,1.071-.944a6.081,6.081,0,0,0,.735-.735c.461-.567,1.07-1.406,1.888-1.406a1.187,1.187,0,0,1,1.218,1.2C118.386,146.2,116.791,146.225,115.825,146.351Z" transform="translate(-42.933 -126.533)"/><path class="a" d="M129.889,165.581a10.28,10.28,0,0,1-2.665.336c-1.259,0-4.68-.232-4.68-2.078,0-1.049,1.365-1.657,2.183-1.952-1.133-.252-2.288-.84-2.288-2.162,0-1.406,1.3-2.329,2.435-2.916a3.092,3.092,0,0,1-1.218-.63,2.425,2.425,0,0,1-.8-1.742c0-2.2,3.064-2.98,4.764-3.065v-.4c0-1.616.735-3.316,2.581-3.316a1.786,1.786,0,0,1,1.889,1.742,1.509,1.509,0,0,1-1.469,1.616c-1.112,0-1.385-1.176-2.056-1.176-.756,0-.714,1.008-.714,1.532h.19a5.688,5.688,0,0,1,1.783.273c1.134.336,2.581,1.239,2.581,2.561,0,1.489-1.489,2.413-2.749,2.79a6.838,6.838,0,0,1-2.056.294,7.785,7.785,0,0,1-2.5-.4.958.958,0,0,0-.461.819c0,1.175,1.678,1.111,2.5,1.111.924,0,1.868-.1,2.791-.1,1.827,0,3.862.964,3.862,3.043S131.674,165.1,129.889,165.581Zm-.713-3.568c-.777,0-1.532.084-2.309.084a10.844,10.844,0,0,1-1.658-.126,1.287,1.287,0,0,0-.63,1.176c0,1.826,2.33,2.392,3.778,2.392,1.2,0,3.168-.462,3.168-1.993C131.526,162.308,130.162,162.014,129.176,162.014Zm-1.6-10.368c-1.239,0-1.3,1.574-1.3,2.478,0,.965.041,2.895,1.406,2.895,1.343,0,1.3-1.657,1.3-2.622C128.987,153.472,128.882,151.646,127.581,151.646Z" transform="translate(-42.96 -126.54)"/></g></g></svg>