
<svg xmlns="http://www.w3.org/2000/svg" viewBox="0 0 171.772 109.736" height="414.749" width="649.217"><text style="line-height:1.25" x="-.184" y="87.506" font-weight="400" font-size="20.892" font-family="sans-serif" letter-spacing="0" word-spacing="0" fill="#fff" fill-opacity=".941" stroke-width=".522"><tspan x="-.184" y="87.506" style="-inkscape-font-specification:'Segoe UI'" font-family="Segoe UI">Youth</tspan></text><text style="line-height:1.25;-inkscape-font-specification:'Segoe UI'" x="58.949" y="87.617" font-weight="400" font-size="20.623" font-family="Segoe UI" letter-spacing="0" word-spacing="0" fill="#fff" fill-opacity=".941" stroke-width=".516"><tspan x="58.949" y="87.617" style="-inkscape-font-specification:'Segoe UI'">Work</tspan></text><text style="line-height:1.25" x="111.533" y="87.441" font-weight="400" font-size="20.331" font-family="sans-serif" letter-spacing="0" word-spacing="0" fill="#fff" fill-opacity=".941" stroke-width=".508"><tspan x="111.533" y="87.441" style="-inkscape-font-specification:'Segoe UI'" font-family="Segoe UI">Ireland</tspan></text><path d="M86.094 41.582a58.768 58.768 0 00-12.24 11.714C51.523 28.676 56.218 0 56.218 0 74.98 11.989 82.89 28.267 86.094 41.582z" class="blue" fill="#01cbfb"/><path d="M87.469 65.388a82.742 82.742 0 01-8.132-6.34 61.585 61.585 0 008.472-1.735c.113 4.985-.34 8.075-.34 8.075z" class="blue" fill="#0fc6ec"/><path d="M88.148 57.313a61.57 61.57 0 01-8.473 1.735 74.214 74.214 0 01-5.821-5.752 58.768 58.768 0 0112.24-11.714 74.223 74.223 0 012.054 15.73z" class="darkgreen" fill="#0f6b37"/><path d="M79.675 59.048c-3.104.418-6.45.646-10.05.646 0 0 1.328-2.673 4.228-6.398a74.222 74.222 0 005.822 5.752z" class="orange" fill="#f09a37"/><path d="M118.3 30.855s-5.607 19.559-30.152 26.458a74.16 74.16 0 00-2.054-15.731 57.247 57.247 0 019.558-5.49c-1.065 2.296-1.988 4.888-2.7 7.806 0 0 11.583-2.171 19.147-12.491a65.542 65.542 0 016.202-.552z" class="orange" fill="#f09937"/><path d="M112.1 31.407c-7.565 10.32-19.147 12.49-19.147 12.49.71-2.917 1.634-5.507 2.699-7.804 4.741-2.149 10.21-3.835 16.447-4.686z" class="red" fill="#f14138" fill-opacity=".988"/><path d="M117.75 18.18c-1.057 5.456-3.13 9.793-5.65 13.227-6.237.852-11.707 2.537-16.449 4.686 7.477-16.081 22.1-17.912 22.1-17.912z" class="pink" fill="#f36f96" fill-opacity=".988"/><path d="M88.176 4.59s8.633 13.777-.368 30.675c0 0-9.918-13.043.368-30.676z" class="green" fill="#80c94a" fill-opacity=".988"/><g aria-label="Galway" style="line-height:1.25" font-weight="400" font-size="38.991" font-family="sans-serif" letter-spacing="0" word-spacing="0" fill="#8cad69" stroke-width=".975"><path d="M67.302 105.885c-.6.275-1.256.516-1.97.723a7.503 7.503 0 01-2.058.302c-.855 0-1.64-.118-2.353-.354a4.832 4.832 0 01-1.822-1.062c-.506-.477-.897-1.072-1.173-1.785-.275-.718-.413-1.557-.413-2.516 0-1.755.512-3.14 1.535-4.153 1.027-1.018 2.436-1.527 4.226-1.527a8.34 8.34 0 011.911.229c.654.148 1.357.4 2.11.76v1.733h-.133a11.571 11.571 0 00-.664-.464 6.297 6.297 0 00-.856-.48 6.157 6.157 0 00-1.158-.376 6.248 6.248 0 00-1.46-.155c-1.23 0-2.204.396-2.922 1.188-.713.786-1.07 1.854-1.07 3.201 0 1.421.375 2.528 1.122 3.32.748.787 1.766 1.18 3.054 1.18.472 0 .942-.047 1.409-.14a6.531 6.531 0 001.24-.362v-3.979l1.445-.002zM76.147 106.696h-1.38v-.877q-.184.125-.501.354-.31.221-.605.354-.347.17-.797.28-.45.118-1.055.118-1.114 0-1.888-.738-.775-.737-.775-1.88 0-.937.399-1.513.405-.583 1.15-.915.753-.332 1.808-.45 1.055-.118 2.264-.177v-.214q0-.472-.17-.781-.161-.31-.471-.487-.295-.17-.708-.229-.414-.059-.864-.059-.545 0-1.217.148-.671.14-1.387.413h-.073v-1.41q.405-.11 1.173-.243.767-.133 1.512-.133.87 0 1.512.148.65.14 1.121.487.465.34.708.878.244.538.244 1.335zm-1.38-2.028v-2.294q-.634.037-1.497.11-.856.074-1.357.214-.598.17-.967.531-.369.354-.369.982 0 .708.428 1.07.428.353 1.306.353.73 0 1.335-.28.605-.288 1.121-.686zM80.234 106.696h-1.387V95.218h1.387zM93.357 98.457l-2.147 8.24h-1.283l-2.117-6.352-2.103 6.351h-1.276l-2.169-8.24h1.446l1.512 6.382 2.058-6.381h1.144l2.11 6.38 1.43-6.38zM101.612 106.696h-1.38v-.877q-.184.125-.502.354-.31.221-.604.354-.347.17-.797.28-.45.118-1.055.118-1.114 0-1.888-.738-.775-.737-.775-1.88 0-.937.398-1.513.406-.583 1.151-.915.753-.332 1.807-.45 1.055-.118 2.265-.177v-.214q0-.472-.17-.781-.162-.31-.472-.487-.295-.17-.708-.229t-.863-.059q-.546 0-1.217.148-.671.14-1.387.413h-.074v-1.41q.406-.11 1.173-.243t1.512-.133q.87 0 1.513.148.649.14 1.12.487.466.34.71.878.243.538.243 1.335zm-1.38-2.028v-2.294q-.634.037-1.497.11-.856.074-1.358.214-.597.17-.966.531-.369.354-.369.982 0 .708.428 1.07.428.353 1.306.353.73 0 1.335-.28.605-.288 1.121-.686zM111.305 98.457l-4.81 11.279h-1.483l1.535-3.438-3.283-7.841h1.505l2.53 6.108 2.552-6.108z"/></g></svg>